<mxfile host="app.diagrams.net" modified="2023-03-25T19:32:27.540Z" agent="Mozilla/5.0 (Windows NT 10.0; WOW64) AppleWebKit/537.36 (KHTML, like Gecko) Chrome/111.0.0.0 Safari/537.36" etag="XkcKINILxMYAKkCfp02z" version="21.1.1" type="github">
  <diagram id="C5RBs43oDa-KdzZeNtuy" name="Page-1">
    <mxGraphModel dx="1674" dy="704" grid="1" gridSize="10" guides="1" tooltips="1" connect="1" arrows="1" fold="1" page="1" pageScale="1" pageWidth="827" pageHeight="1169" math="0" shadow="0">
      <root>
        <mxCell id="WIyWlLk6GJQsqaUBKTNV-0" />
        <mxCell id="WIyWlLk6GJQsqaUBKTNV-1" parent="WIyWlLk6GJQsqaUBKTNV-0" />
        <mxCell id="nQeolu39O7KRunp5My-d-2" value="" style="edgeStyle=orthogonalEdgeStyle;rounded=0;orthogonalLoop=1;jettySize=auto;html=1;" parent="WIyWlLk6GJQsqaUBKTNV-1" source="nQeolu39O7KRunp5My-d-0" target="nQeolu39O7KRunp5My-d-1" edge="1">
          <mxGeometry relative="1" as="geometry" />
        </mxCell>
        <mxCell id="nQeolu39O7KRunp5My-d-0" value="search activity" style="rounded=1;whiteSpace=wrap;html=1;" parent="WIyWlLk6GJQsqaUBKTNV-1" vertex="1">
          <mxGeometry x="435" y="100" width="80" height="30" as="geometry" />
        </mxCell>
        <mxCell id="nQeolu39O7KRunp5My-d-18" style="edgeStyle=orthogonalEdgeStyle;rounded=0;orthogonalLoop=1;jettySize=auto;html=1;entryX=0.5;entryY=0;entryDx=0;entryDy=0;" parent="WIyWlLk6GJQsqaUBKTNV-1" source="nQeolu39O7KRunp5My-d-1" target="nQeolu39O7KRunp5My-d-17" edge="1">
          <mxGeometry relative="1" as="geometry" />
        </mxCell>
        <mxCell id="26G_5PfqMF69jZQpJsCZ-6" style="edgeStyle=orthogonalEdgeStyle;rounded=0;orthogonalLoop=1;jettySize=auto;html=1;" edge="1" parent="WIyWlLk6GJQsqaUBKTNV-1" source="nQeolu39O7KRunp5My-d-1" target="26G_5PfqMF69jZQpJsCZ-5">
          <mxGeometry relative="1" as="geometry">
            <Array as="points">
              <mxPoint x="480" y="235" />
            </Array>
          </mxGeometry>
        </mxCell>
        <mxCell id="26G_5PfqMF69jZQpJsCZ-8" style="edgeStyle=orthogonalEdgeStyle;rounded=0;orthogonalLoop=1;jettySize=auto;html=1;entryX=0.385;entryY=0;entryDx=0;entryDy=0;entryPerimeter=0;" edge="1" parent="WIyWlLk6GJQsqaUBKTNV-1" source="nQeolu39O7KRunp5My-d-1" target="26G_5PfqMF69jZQpJsCZ-7">
          <mxGeometry relative="1" as="geometry" />
        </mxCell>
        <mxCell id="26G_5PfqMF69jZQpJsCZ-10" style="edgeStyle=orthogonalEdgeStyle;rounded=0;orthogonalLoop=1;jettySize=auto;html=1;entryX=1;entryY=0.5;entryDx=0;entryDy=0;" edge="1" parent="WIyWlLk6GJQsqaUBKTNV-1" source="nQeolu39O7KRunp5My-d-1" target="nQeolu39O7KRunp5My-d-3">
          <mxGeometry relative="1" as="geometry" />
        </mxCell>
        <mxCell id="nQeolu39O7KRunp5My-d-1" value="search options" style="rounded=0;whiteSpace=wrap;html=1;" parent="WIyWlLk6GJQsqaUBKTNV-1" vertex="1">
          <mxGeometry x="415" y="160" width="120" height="30" as="geometry" />
        </mxCell>
        <mxCell id="26G_5PfqMF69jZQpJsCZ-16" style="edgeStyle=orthogonalEdgeStyle;rounded=0;orthogonalLoop=1;jettySize=auto;html=1;entryX=0.375;entryY=-0.08;entryDx=0;entryDy=0;entryPerimeter=0;" edge="1" parent="WIyWlLk6GJQsqaUBKTNV-1" source="nQeolu39O7KRunp5My-d-3" target="26G_5PfqMF69jZQpJsCZ-15">
          <mxGeometry relative="1" as="geometry" />
        </mxCell>
        <mxCell id="26G_5PfqMF69jZQpJsCZ-21" style="edgeStyle=orthogonalEdgeStyle;rounded=0;orthogonalLoop=1;jettySize=auto;html=1;" edge="1" parent="WIyWlLk6GJQsqaUBKTNV-1" source="nQeolu39O7KRunp5My-d-3" target="26G_5PfqMF69jZQpJsCZ-19">
          <mxGeometry relative="1" as="geometry">
            <Array as="points">
              <mxPoint x="375" y="270" />
              <mxPoint x="490" y="270" />
            </Array>
          </mxGeometry>
        </mxCell>
        <mxCell id="nQeolu39O7KRunp5My-d-3" value="search users" style="rounded=0;whiteSpace=wrap;html=1;" parent="WIyWlLk6GJQsqaUBKTNV-1" vertex="1">
          <mxGeometry x="315" y="220" width="120" height="30" as="geometry" />
        </mxCell>
        <mxCell id="26G_5PfqMF69jZQpJsCZ-12" style="edgeStyle=orthogonalEdgeStyle;rounded=0;orthogonalLoop=1;jettySize=auto;html=1;entryX=0.5;entryY=0;entryDx=0;entryDy=0;" edge="1" parent="WIyWlLk6GJQsqaUBKTNV-1" source="nQeolu39O7KRunp5My-d-17" target="26G_5PfqMF69jZQpJsCZ-11">
          <mxGeometry relative="1" as="geometry" />
        </mxCell>
        <mxCell id="26G_5PfqMF69jZQpJsCZ-20" style="edgeStyle=orthogonalEdgeStyle;rounded=0;orthogonalLoop=1;jettySize=auto;html=1;entryX=0;entryY=0.5;entryDx=0;entryDy=0;" edge="1" parent="WIyWlLk6GJQsqaUBKTNV-1" source="nQeolu39O7KRunp5My-d-17" target="26G_5PfqMF69jZQpJsCZ-19">
          <mxGeometry relative="1" as="geometry">
            <Array as="points">
              <mxPoint x="290" y="240" />
              <mxPoint x="290" y="440" />
            </Array>
          </mxGeometry>
        </mxCell>
        <mxCell id="nQeolu39O7KRunp5My-d-17" value="search doctor" style="rounded=0;whiteSpace=wrap;html=1;" parent="WIyWlLk6GJQsqaUBKTNV-1" vertex="1">
          <mxGeometry x="160" y="220" width="80" height="30" as="geometry" />
        </mxCell>
        <mxCell id="26G_5PfqMF69jZQpJsCZ-17" style="edgeStyle=orthogonalEdgeStyle;rounded=0;orthogonalLoop=1;jettySize=auto;html=1;entryX=0.25;entryY=0;entryDx=0;entryDy=0;" edge="1" parent="WIyWlLk6GJQsqaUBKTNV-1" source="26G_5PfqMF69jZQpJsCZ-5" target="26G_5PfqMF69jZQpJsCZ-14">
          <mxGeometry relative="1" as="geometry">
            <Array as="points">
              <mxPoint x="590" y="270" />
              <mxPoint x="590" y="270" />
            </Array>
          </mxGeometry>
        </mxCell>
        <mxCell id="26G_5PfqMF69jZQpJsCZ-22" style="edgeStyle=orthogonalEdgeStyle;rounded=0;orthogonalLoop=1;jettySize=auto;html=1;entryX=1;entryY=0.5;entryDx=0;entryDy=0;" edge="1" parent="WIyWlLk6GJQsqaUBKTNV-1" source="26G_5PfqMF69jZQpJsCZ-5" target="26G_5PfqMF69jZQpJsCZ-19">
          <mxGeometry relative="1" as="geometry">
            <Array as="points">
              <mxPoint x="550" y="440" />
            </Array>
          </mxGeometry>
        </mxCell>
        <mxCell id="26G_5PfqMF69jZQpJsCZ-5" value="search patients" style="rounded=0;whiteSpace=wrap;html=1;" vertex="1" parent="WIyWlLk6GJQsqaUBKTNV-1">
          <mxGeometry x="515" y="220" width="120" height="30" as="geometry" />
        </mxCell>
        <mxCell id="26G_5PfqMF69jZQpJsCZ-18" style="edgeStyle=orthogonalEdgeStyle;rounded=0;orthogonalLoop=1;jettySize=auto;html=1;entryX=0.413;entryY=0.02;entryDx=0;entryDy=0;entryPerimeter=0;" edge="1" parent="WIyWlLk6GJQsqaUBKTNV-1" source="26G_5PfqMF69jZQpJsCZ-7" target="26G_5PfqMF69jZQpJsCZ-13">
          <mxGeometry relative="1" as="geometry">
            <Array as="points">
              <mxPoint x="733" y="260" />
              <mxPoint x="733" y="260" />
            </Array>
          </mxGeometry>
        </mxCell>
        <mxCell id="26G_5PfqMF69jZQpJsCZ-23" style="edgeStyle=orthogonalEdgeStyle;rounded=0;orthogonalLoop=1;jettySize=auto;html=1;exitX=0.25;exitY=1;exitDx=0;exitDy=0;entryX=0.5;entryY=1;entryDx=0;entryDy=0;" edge="1" parent="WIyWlLk6GJQsqaUBKTNV-1" source="26G_5PfqMF69jZQpJsCZ-7" target="26G_5PfqMF69jZQpJsCZ-19">
          <mxGeometry relative="1" as="geometry" />
        </mxCell>
        <mxCell id="26G_5PfqMF69jZQpJsCZ-7" value="search meetings" style="rounded=0;whiteSpace=wrap;html=1;" vertex="1" parent="WIyWlLk6GJQsqaUBKTNV-1">
          <mxGeometry x="660" y="220" width="120" height="30" as="geometry" />
        </mxCell>
        <mxCell id="26G_5PfqMF69jZQpJsCZ-27" style="edgeStyle=orthogonalEdgeStyle;rounded=0;orthogonalLoop=1;jettySize=auto;html=1;entryX=0;entryY=0.5;entryDx=0;entryDy=0;" edge="1" parent="WIyWlLk6GJQsqaUBKTNV-1" source="26G_5PfqMF69jZQpJsCZ-11" target="26G_5PfqMF69jZQpJsCZ-26">
          <mxGeometry relative="1" as="geometry">
            <Array as="points">
              <mxPoint x="200" y="600" />
            </Array>
          </mxGeometry>
        </mxCell>
        <mxCell id="26G_5PfqMF69jZQpJsCZ-11" value="return all matches doctor" style="rounded=0;whiteSpace=wrap;html=1;" vertex="1" parent="WIyWlLk6GJQsqaUBKTNV-1">
          <mxGeometry x="160" y="300" width="80" height="50" as="geometry" />
        </mxCell>
        <mxCell id="26G_5PfqMF69jZQpJsCZ-31" style="edgeStyle=orthogonalEdgeStyle;rounded=0;orthogonalLoop=1;jettySize=auto;html=1;" edge="1" parent="WIyWlLk6GJQsqaUBKTNV-1" source="26G_5PfqMF69jZQpJsCZ-13">
          <mxGeometry relative="1" as="geometry">
            <mxPoint x="520" y="600" as="targetPoint" />
            <Array as="points">
              <mxPoint x="740" y="600" />
            </Array>
          </mxGeometry>
        </mxCell>
        <mxCell id="26G_5PfqMF69jZQpJsCZ-13" value="return all matches meetings" style="rounded=0;whiteSpace=wrap;html=1;" vertex="1" parent="WIyWlLk6GJQsqaUBKTNV-1">
          <mxGeometry x="700" y="300" width="80" height="50" as="geometry" />
        </mxCell>
        <mxCell id="26G_5PfqMF69jZQpJsCZ-30" style="edgeStyle=orthogonalEdgeStyle;rounded=0;orthogonalLoop=1;jettySize=auto;html=1;" edge="1" parent="WIyWlLk6GJQsqaUBKTNV-1" source="26G_5PfqMF69jZQpJsCZ-14">
          <mxGeometry relative="1" as="geometry">
            <mxPoint x="520" y="600" as="targetPoint" />
            <Array as="points">
              <mxPoint x="620" y="600" />
            </Array>
          </mxGeometry>
        </mxCell>
        <mxCell id="26G_5PfqMF69jZQpJsCZ-14" value="return all matches patients" style="rounded=0;whiteSpace=wrap;html=1;" vertex="1" parent="WIyWlLk6GJQsqaUBKTNV-1">
          <mxGeometry x="570" y="300" width="80" height="50" as="geometry" />
        </mxCell>
        <mxCell id="26G_5PfqMF69jZQpJsCZ-29" style="edgeStyle=orthogonalEdgeStyle;rounded=0;orthogonalLoop=1;jettySize=auto;html=1;" edge="1" parent="WIyWlLk6GJQsqaUBKTNV-1" source="26G_5PfqMF69jZQpJsCZ-15" target="26G_5PfqMF69jZQpJsCZ-26">
          <mxGeometry relative="1" as="geometry">
            <Array as="points">
              <mxPoint x="390" y="455" />
              <mxPoint x="440" y="455" />
            </Array>
          </mxGeometry>
        </mxCell>
        <mxCell id="26G_5PfqMF69jZQpJsCZ-15" value="return all matches user" style="rounded=0;whiteSpace=wrap;html=1;" vertex="1" parent="WIyWlLk6GJQsqaUBKTNV-1">
          <mxGeometry x="350" y="300" width="80" height="50" as="geometry" />
        </mxCell>
        <mxCell id="26G_5PfqMF69jZQpJsCZ-25" style="edgeStyle=orthogonalEdgeStyle;rounded=0;orthogonalLoop=1;jettySize=auto;html=1;entryX=1;entryY=0.5;entryDx=0;entryDy=0;" edge="1" parent="WIyWlLk6GJQsqaUBKTNV-1" source="26G_5PfqMF69jZQpJsCZ-19" target="26G_5PfqMF69jZQpJsCZ-24">
          <mxGeometry relative="1" as="geometry" />
        </mxCell>
        <mxCell id="26G_5PfqMF69jZQpJsCZ-19" value="join searches" style="ellipse;whiteSpace=wrap;html=1;aspect=fixed;" vertex="1" parent="WIyWlLk6GJQsqaUBKTNV-1">
          <mxGeometry x="450" y="400" width="80" height="80" as="geometry" />
        </mxCell>
        <mxCell id="26G_5PfqMF69jZQpJsCZ-28" style="edgeStyle=orthogonalEdgeStyle;rounded=0;orthogonalLoop=1;jettySize=auto;html=1;entryX=0;entryY=0.5;entryDx=0;entryDy=0;" edge="1" parent="WIyWlLk6GJQsqaUBKTNV-1" source="26G_5PfqMF69jZQpJsCZ-24" target="26G_5PfqMF69jZQpJsCZ-26">
          <mxGeometry relative="1" as="geometry" />
        </mxCell>
        <mxCell id="26G_5PfqMF69jZQpJsCZ-24" value="return matching results" style="rounded=0;whiteSpace=wrap;html=1;" vertex="1" parent="WIyWlLk6GJQsqaUBKTNV-1">
          <mxGeometry x="300" y="470" width="80" height="50" as="geometry" />
        </mxCell>
        <mxCell id="26G_5PfqMF69jZQpJsCZ-26" value="end" style="ellipse;whiteSpace=wrap;html=1;" vertex="1" parent="WIyWlLk6GJQsqaUBKTNV-1">
          <mxGeometry x="395" y="560" width="120" height="80" as="geometry" />
        </mxCell>
      </root>
    </mxGraphModel>
  </diagram>
</mxfile>
